<svg width="1024" height="1024" viewBox="0 0 1024 1024" fill="none" xmlns="http://www.w3.org/2000/svg">
<rect width="1024" height="1024" rx="128" fill="url(#paint0_linear_105_6)"/>
<path d="M296.861 227.314C312.915 227.314 325.777 231.7 335.446 240.473C345.115 249.062 349.949 262.952 349.949 282.142V379.735H309.176V292.285C309.176 281.502 307.26 273.461 303.429 268.161C299.598 262.678 293.486 259.936 285.095 259.936C272.689 259.936 264.206 264.231 259.645 272.821C255.084 281.228 252.804 293.381 252.804 309.281V379.735H212.03V230.055H243.226L248.699 249.245H250.888C254.172 244.128 258.186 240.016 262.929 236.909C267.672 233.619 272.963 231.243 278.801 229.781C284.638 228.136 290.659 227.314 296.861 227.314Z" fill="white"/>
<path d="M528.977 230.055V379.735H497.781L492.308 360.545H490.119C487.018 365.663 483.004 369.866 478.079 373.156C473.335 376.263 468.045 378.547 462.207 380.009C456.369 381.654 450.349 382.476 444.146 382.476C433.565 382.476 424.261 380.557 416.234 376.719C408.207 372.882 402.004 366.942 397.626 358.9C393.248 350.859 391.058 340.442 391.058 327.649V230.055H431.832V317.506C431.832 328.106 433.748 336.147 437.579 341.63C441.41 347.112 447.521 349.854 455.913 349.854C464.305 349.854 470.781 347.935 475.342 344.097C480.085 340.259 483.369 334.685 485.193 327.374C487.2 320.064 488.204 311.109 488.204 300.509V230.055H528.977Z" fill="white"/>
<path d="M663.4 379.735H622.08V266.516C622.08 263.409 622.08 259.571 622.08 255.002C622.262 250.433 622.444 245.681 622.627 240.747C622.809 235.812 622.992 231.426 623.174 227.588C622.262 228.685 620.255 230.695 617.154 233.619C614.235 236.36 611.498 238.828 608.944 241.021L586.505 259.114L566.529 234.167L629.468 184H663.4V379.735Z" fill="white"/>
<path d="M820 379.735H778.679V266.516C778.679 263.409 778.679 259.571 778.679 255.002C778.862 250.433 779.044 245.681 779.226 240.747C779.409 235.812 779.591 231.426 779.774 227.588C778.862 228.685 776.855 230.695 773.753 233.619C770.835 236.36 768.098 238.828 765.544 241.021L743.105 259.114L723.129 234.167L786.068 184H820V379.735Z" fill="white"/>
<path d="M296.861 227.314C312.915 227.314 325.777 231.7 335.446 240.473C345.115 249.062 349.949 262.952 349.949 282.142V379.735H309.176V292.285C309.176 281.502 307.26 273.461 303.429 268.161C299.598 262.678 293.486 259.936 285.095 259.936C272.689 259.936 264.206 264.231 259.645 272.821C255.084 281.228 252.804 293.381 252.804 309.281V379.735H212.03V230.055H243.226L248.699 249.245H250.888C254.172 244.128 258.186 240.016 262.929 236.909C267.672 233.619 272.963 231.243 278.801 229.781C284.638 228.136 290.659 227.314 296.861 227.314Z" fill="white"/>
<path d="M273.601 448.771C287.466 448.771 299.324 451.421 309.176 456.721C319.209 462.021 326.963 469.697 332.436 479.749C337.909 489.8 340.645 502.137 340.645 516.757V536.495H244.321C244.686 548.009 248.061 557.056 254.446 563.635C261.013 570.214 270.044 573.504 281.537 573.504C291.206 573.504 299.963 572.59 307.807 570.763C315.652 568.752 323.77 565.737 332.162 561.716V593.242C324.865 596.897 317.111 599.547 308.902 601.192C300.875 603.02 291.115 603.934 279.622 603.934C264.662 603.934 251.436 601.192 239.943 595.709C228.449 590.044 219.419 581.546 212.851 570.214C206.284 558.883 203 544.628 203 527.449C203 509.904 205.919 495.375 211.757 483.861C217.777 472.164 226.078 463.392 236.659 457.543C247.24 451.695 259.554 448.771 273.601 448.771ZM273.875 477.83C266.03 477.83 259.463 480.388 254.172 485.506C249.064 490.623 246.054 498.573 245.142 509.356H302.334C302.334 503.325 301.24 497.933 299.051 493.182C297.044 488.43 293.942 484.683 289.747 481.942C285.551 479.2 280.26 477.83 273.875 477.83Z" fill="white"/>
<path d="M296.394 808.378C300.955 808.378 305.333 807.921 309.529 807.007C313.725 806.093 317.921 804.996 322.117 803.717V834.146C317.739 835.974 312.266 837.528 305.698 838.807C299.313 840.269 292.289 841 284.627 841C275.688 841 267.661 839.538 260.546 836.614C253.614 833.69 248.049 828.664 243.853 821.536C239.84 814.226 237.833 804.174 237.833 791.381V719.282H218.404V702.012L240.843 688.305L252.61 656.779H278.607V688.579H320.475V719.282H278.607V791.381C278.607 797.046 280.249 801.341 283.532 804.265C286.816 807.007 291.103 808.378 296.394 808.378Z" fill="white"/>
<defs>
<linearGradient id="paint0_linear_105_6" x1="512" y1="0" x2="512" y2="1024" gradientUnits="userSpaceOnUse">
<stop stop-color="#373737"/>
<stop offset="1" stop-color="#1D1D1D"/>
</linearGradient>
</defs>
</svg>
