<svg width="570" height="176" viewBox="0 0 570 176" fill="none" xmlns="http://www.w3.org/2000/svg">
<path d="M186 168.5H205.5V173L204 174.5L195.75 176L187.5 174.5L186 173V168.5Z" fill="url(#paint0_linear_219_182)"/>
<path d="M190.5 159.5H201L204 161L205.5 168.5L204 170L195.75 171.5L187.5 170L186 168.5L187.5 161L190.5 159.5Z" fill="url(#paint1_linear_219_182)"/>
<rect x="30" y="29.0001" width="145.5" height="112.5" fill="url(#paint2_linear_219_182)"/>
<rect x="31.5001" y="30.5001" width="144" height="111" fill="url(#paint3_linear_219_182)"/>
<rect x="79.5" y="156.5" width="46.5" height="6" fill="url(#paint4_linear_219_182)"/>
<path d="M84 147.5H121.5L126 156.5H79.5L84 147.5Z" fill="url(#paint5_linear_219_182)"/>
<rect x="93" y="141.5" width="19.5" height="10.5" fill="url(#paint6_linear_219_182)"/>
<rect x="36" y="35.0002" width="133.5" height="100.5" fill="url(#paint7_linear_219_182)"/>
<rect x="36" y="168.5" width="133.5" height="6" fill="url(#paint8_linear_219_182)"/>
<path d="M48.9193 159.5H156.581L169.5 168.5H36L48.9193 159.5Z" fill="url(#paint9_linear_219_182)"/>
<path d="M226.011 18.2135L229.382 14H281.629L285 18.2135V157.258L279.944 153.888H231.067L226.011 157.258V18.2135Z" fill="url(#paint10_linear_219_182)"/>
<path d="M227.697 18.2134L229.742 15.6853H281.629L285 19.8988V157.258L279.944 153.888H231.067L227.697 157.258V18.2134Z" fill="url(#paint11_linear_219_182)"/>
<path d="M226.011 24.9551L229.382 20.7416H281.629L285 24.9551V164L279.944 160.629H231.067L226.011 164V24.9551Z" fill="url(#paint12_linear_219_182)"/>
<path d="M227.697 22.8483L229.382 20.7416H281.629L285 24.9551V164L279.944 160.629H231.067L227.697 162.874V22.8483Z" fill="url(#paint13_linear_219_182)"/>
<path d="M226.011 38.4382L229.382 34.2247H281.629L285 38.4382V40.1236L281.629 35.9101H229.382L226.011 40.1236V38.4382Z" fill="url(#paint14_linear_219_182)"/>
<path d="M226.011 53.6068L229.382 49.3933H281.629L285 53.6068V55.2922L281.629 51.0787H229.382L226.011 55.2922V53.6068Z" fill="url(#paint15_linear_219_182)"/>
<path d="M226.011 68.7753L229.382 64.5618H281.629L285 68.7753V70.4606L281.629 66.2472H229.382L226.011 70.4606V68.7753Z" fill="url(#paint16_linear_219_182)"/>
<path d="M226.011 83.9438L229.382 79.7303H281.629L285 83.9438V85.6292L281.629 81.4157H229.382L226.011 85.6292V83.9438Z" fill="url(#paint17_linear_219_182)"/>
<path fill-rule="evenodd" clip-rule="evenodd" d="M249.606 121.865L254.662 126.921H257.864L263.089 121.696V118.664L257.864 113.438H254.662L249.606 118.494V121.865ZM251.292 121.444L255.084 125.236H257.485L261.404 121.317V119.043L257.485 115.124H255.084L251.292 118.916V121.444Z" fill="url(#paint18_linear_219_182)"/>
<path fill-rule="evenodd" clip-rule="evenodd" d="M241.093 111.599L241.093 128.761L247.432 135.099L265.264 135.099L271.267 129.096L271.267 111.264L264.928 104.925H247.767L241.093 111.599ZM243.834 112.672L243.834 127.688L248.588 132.442L264.107 132.442L268.61 127.939L268.61 112.421L263.856 107.667H248.84L243.834 112.672Z" fill="black" fill-opacity="0.21"/>
<path d="M471.004 168.5H490.504V173L489.004 174.5L480.754 176L472.504 174.5L471.004 173V168.5Z" fill="url(#paint19_linear_219_182)"/>
<path d="M475.504 159.5H486.004L489.004 161L490.504 168.5L489.004 170L480.754 171.5L472.504 170L471.004 168.5L472.504 161L475.504 159.5Z" fill="url(#paint20_linear_219_182)"/>
<rect x="315" y="29" width="145.504" height="112.5" fill="url(#paint21_linear_219_182)"/>
<rect x="316.5" y="30.5" width="144.003" height="111" fill="url(#paint22_linear_219_182)"/>
<rect x="364.501" y="156.5" width="46.5011" height="6" fill="url(#paint23_linear_219_182)"/>
<path d="M369.001 147.5H406.502L411.002 156.5H364.501L369.001 147.5Z" fill="url(#paint24_linear_219_182)"/>
<rect x="378.002" y="141.5" width="19.5005" height="10.5" fill="url(#paint25_linear_219_182)"/>
<g filter="url(#filter0_d_219_182)">
<rect x="321" y="35" width="133.503" height="100.5" fill="url(#paint26_linear_219_182)"/>
</g>
<rect x="328" y="47" width="61" height="3" fill="#B4EAFF"/>
<rect x="328" y="54" width="37" height="3" fill="#B4EAFF"/>
<rect x="328" y="61" width="48" height="3" fill="#B4EAFF"/>
<rect x="328" y="75" width="21" height="3" fill="#B4EAFF"/>
<rect x="328" y="82" width="30" height="3" fill="#B4EAFF"/>
<rect x="328" y="89" width="83" height="3" fill="#B4EAFF"/>
<rect x="321" y="168.5" width="133.503" height="6" fill="url(#paint27_linear_219_182)"/>
<path d="M333.92 159.5H441.584L454.503 168.5H321L333.92 159.5Z" fill="url(#paint28_linear_219_182)"/>
<path d="M511.01 18.2135L514.38 14H566.629L570 18.2135V157.258L564.943 153.888H516.066L511.01 157.258V18.2135Z" fill="url(#paint29_linear_219_182)"/>
<path d="M512.695 18.2134L514.74 15.6853H566.629L570 19.8988V157.258L564.944 153.888H516.066L512.695 157.258V18.2134Z" fill="url(#paint30_linear_219_182)"/>
<path d="M511.01 24.9551L514.381 20.7416H566.629L570 24.9551V164L564.944 160.629H516.066L511.01 164V24.9551Z" fill="url(#paint31_linear_219_182)"/>
<path d="M512.695 22.8483L514.381 20.7416H566.629L570 24.9551V164L564.944 160.629H516.066L512.695 162.874V22.8483Z" fill="url(#paint32_linear_219_182)"/>
<path d="M511.01 38.4382L514.381 34.2247H566.629L570 38.4382V40.1236L566.629 35.9101H514.381L511.01 40.1236V38.4382Z" fill="url(#paint33_linear_219_182)"/>
<path d="M511.01 53.6068L514.381 49.3933H566.629L570 53.6068V55.2922L566.629 51.0787H514.381L511.01 55.2922V53.6068Z" fill="url(#paint34_linear_219_182)"/>
<path d="M511.01 68.7753L514.381 64.5618H566.629L570 68.7753V70.4606L566.629 66.2472H514.381L511.01 70.4606V68.7753Z" fill="url(#paint35_linear_219_182)"/>
<path d="M511.01 83.9438L514.381 79.7303H566.629L570 83.9438V85.6292L566.629 81.4157H514.381L511.01 85.6292V83.9438Z" fill="url(#paint36_linear_219_182)"/>
<path fill-rule="evenodd" clip-rule="evenodd" d="M534.606 121.865L539.662 126.921H542.863L548.089 121.696V118.664L542.863 113.438H539.662L534.606 118.494V121.865ZM536.291 121.444L540.083 125.236H542.484L546.404 121.317V119.043L542.484 115.124H540.083L536.291 118.916V121.444Z" fill="url(#paint37_linear_219_182)"/>
<g filter="url(#filter1_d_219_182)">
<path fill-rule="evenodd" clip-rule="evenodd" d="M526.093 111.599L526.093 128.761L532.431 135.099L550.264 135.099L556.267 129.096L556.267 111.264L549.928 104.925H532.767L526.093 111.599ZM528.834 112.672L528.834 127.688L533.588 132.442L549.107 132.442L553.61 127.939L553.61 112.421L548.856 107.667H533.839L528.834 112.672Z" fill="#0BB9F6"/>
</g>
<defs>
<filter id="filter0_d_219_182" x="286" y="0" width="203.503" height="170.5" filterUnits="userSpaceOnUse" color-interpolation-filters="sRGB">
<feFlood flood-opacity="0" result="BackgroundImageFix"/>
<feColorMatrix in="SourceAlpha" type="matrix" values="0 0 0 0 0 0 0 0 0 0 0 0 0 0 0 0 0 0 127 0" result="hardAlpha"/>
<feOffset/>
<feGaussianBlur stdDeviation="17.5"/>
<feComposite in2="hardAlpha" operator="out"/>
<feColorMatrix type="matrix" values="0 0 0 0 0.0392157 0 0 0 0 0.72549 0 0 0 0 0.964706 0 0 0 0.81 0"/>
<feBlend mode="normal" in2="BackgroundImageFix" result="effect1_dropShadow_219_182"/>
<feBlend mode="normal" in="SourceGraphic" in2="effect1_dropShadow_219_182" result="shape"/>
</filter>
<filter id="filter1_d_219_182" x="520.093" y="98.9254" width="42.1743" height="42.1737" filterUnits="userSpaceOnUse" color-interpolation-filters="sRGB">
<feFlood flood-opacity="0" result="BackgroundImageFix"/>
<feColorMatrix in="SourceAlpha" type="matrix" values="0 0 0 0 0 0 0 0 0 0 0 0 0 0 0 0 0 0 127 0" result="hardAlpha"/>
<feOffset/>
<feGaussianBlur stdDeviation="3"/>
<feComposite in2="hardAlpha" operator="out"/>
<feColorMatrix type="matrix" values="0 0 0 0 0.0431373 0 0 0 0 0.72549 0 0 0 0 0.964706 0 0 0 1 0"/>
<feBlend mode="normal" in2="BackgroundImageFix" result="effect1_dropShadow_219_182"/>
<feBlend mode="normal" in="SourceGraphic" in2="effect1_dropShadow_219_182" result="shape"/>
</filter>
<linearGradient id="paint0_linear_219_182" x1="186" y1="168.5" x2="189.964" y2="178.251" gradientUnits="userSpaceOnUse">
<stop stop-color="#626475"/>
<stop offset="1" stop-color="#868ABE"/>
</linearGradient>
<linearGradient id="paint1_linear_219_182" x1="186" y1="159.5" x2="193.576" y2="171.924" gradientUnits="userSpaceOnUse">
<stop stop-color="#42434E"/>
<stop offset="1" stop-color="#3B3D62"/>
</linearGradient>
<linearGradient id="paint2_linear_219_182" x1="30" y1="29.0001" x2="136.5" y2="133.25" gradientUnits="userSpaceOnUse">
<stop stop-color="#9193AA"/>
<stop offset="1" stop-color="#868ABE"/>
</linearGradient>
<linearGradient id="paint3_linear_219_182" x1="31.5001" y1="30.5001" x2="136.587" y2="133.682" gradientUnits="userSpaceOnUse">
<stop stop-color="#626475"/>
<stop offset="1" stop-color="#868ABE"/>
</linearGradient>
<linearGradient id="paint4_linear_219_182" x1="79.5" y1="156.5" x2="81.3824" y2="167.542" gradientUnits="userSpaceOnUse">
<stop stop-color="#626475"/>
<stop offset="1" stop-color="#868ABE"/>
</linearGradient>
<linearGradient id="paint5_linear_219_182" x1="79.5" y1="147.5" x2="83.591" y2="163.498" gradientUnits="userSpaceOnUse">
<stop stop-color="#42434E"/>
<stop offset="1" stop-color="#3B3D62"/>
</linearGradient>
<linearGradient id="paint6_linear_219_182" x1="102.75" y1="141.5" x2="105.559" y2="151.702" gradientUnits="userSpaceOnUse">
<stop stop-color="#414352"/>
<stop offset="1" stop-color="#868ABE"/>
</linearGradient>
<linearGradient id="paint7_linear_219_182" x1="54.75" y1="47.0003" x2="152.25" y2="122" gradientUnits="userSpaceOnUse">
<stop stop-color="#02011A"/>
<stop offset="1" stop-color="#040231"/>
</linearGradient>
<linearGradient id="paint8_linear_219_182" x1="36" y1="168.5" x2="36.6724" y2="179.823" gradientUnits="userSpaceOnUse">
<stop stop-color="#626475"/>
<stop offset="1" stop-color="#868ABE"/>
</linearGradient>
<linearGradient id="paint9_linear_219_182" x1="36" y1="159.5" x2="37.5062" y2="176.41" gradientUnits="userSpaceOnUse">
<stop stop-color="#42434E"/>
<stop offset="1" stop-color="#3B3D62"/>
</linearGradient>
<linearGradient id="paint10_linear_219_182" x1="258.876" y1="7.25843" x2="326.358" y2="45.5754" gradientUnits="userSpaceOnUse">
<stop stop-color="#484A58"/>
<stop offset="1" stop-color="#868ABE"/>
</linearGradient>
<linearGradient id="paint11_linear_219_182" x1="258.876" y1="7.25832" x2="326.358" y2="45.5753" gradientUnits="userSpaceOnUse">
<stop stop-color="#2F3144"/>
<stop offset="1" stop-color="#868ABE"/>
</linearGradient>
<linearGradient id="paint12_linear_219_182" x1="226.011" y1="14" x2="303.68" y2="37.1175" gradientUnits="userSpaceOnUse">
<stop stop-color="#A1A6D2"/>
<stop offset="1" stop-color="#868ABE"/>
</linearGradient>
<linearGradient id="paint13_linear_219_182" x1="226.011" y1="14" x2="303.68" y2="37.1175" gradientUnits="userSpaceOnUse">
<stop stop-color="#626475"/>
<stop offset="1" stop-color="#868ABE"/>
</linearGradient>
<linearGradient id="paint14_linear_219_182" x1="226.011" y1="27.4832" x2="303.68" y2="50.6006" gradientUnits="userSpaceOnUse">
<stop stop-color="#3E404F"/>
<stop offset="1" stop-color="#53567B"/>
</linearGradient>
<linearGradient id="paint15_linear_219_182" x1="226.011" y1="42.6517" x2="303.68" y2="65.7692" gradientUnits="userSpaceOnUse">
<stop stop-color="#3E404F"/>
<stop offset="1" stop-color="#53567B"/>
</linearGradient>
<linearGradient id="paint16_linear_219_182" x1="226.011" y1="57.8202" x2="303.68" y2="80.9376" gradientUnits="userSpaceOnUse">
<stop stop-color="#3E404F"/>
<stop offset="1" stop-color="#53567B"/>
</linearGradient>
<linearGradient id="paint17_linear_219_182" x1="226.011" y1="72.9888" x2="303.68" y2="96.1062" gradientUnits="userSpaceOnUse">
<stop stop-color="#3E404F"/>
<stop offset="1" stop-color="#53567B"/>
</linearGradient>
<linearGradient id="paint18_linear_219_182" x1="256.348" y1="111.753" x2="256.348" y2="128.607" gradientUnits="userSpaceOnUse">
<stop stop-opacity="0.46"/>
<stop offset="1" stop-opacity="0.57"/>
</linearGradient>
<linearGradient id="paint19_linear_219_182" x1="471.004" y1="168.5" x2="474.968" y2="178.251" gradientUnits="userSpaceOnUse">
<stop stop-color="#626475"/>
<stop offset="1" stop-color="#868ABE"/>
</linearGradient>
<linearGradient id="paint20_linear_219_182" x1="471.004" y1="159.5" x2="478.58" y2="171.924" gradientUnits="userSpaceOnUse">
<stop stop-color="#3181A4"/>
<stop offset="1" stop-color="#256EB0"/>
</linearGradient>
<linearGradient id="paint21_linear_219_182" x1="315" y1="29" x2="421.5" y2="133.253" gradientUnits="userSpaceOnUse">
<stop stop-color="#9193AA"/>
<stop offset="1" stop-color="#868ABE"/>
</linearGradient>
<linearGradient id="paint22_linear_219_182" x1="316.5" y1="30.5" x2="421.587" y2="133.684" gradientUnits="userSpaceOnUse">
<stop stop-color="#626475"/>
<stop offset="1" stop-color="#868ABE"/>
</linearGradient>
<linearGradient id="paint23_linear_219_182" x1="364.501" y1="156.5" x2="366.384" y2="167.542" gradientUnits="userSpaceOnUse">
<stop stop-color="#626475"/>
<stop offset="1" stop-color="#868ABE"/>
</linearGradient>
<linearGradient id="paint24_linear_219_182" x1="364.501" y1="147.5" x2="368.592" y2="163.498" gradientUnits="userSpaceOnUse">
<stop stop-color="#3E606A"/>
<stop offset="1" stop-color="#086CB5"/>
</linearGradient>
<linearGradient id="paint25_linear_219_182" x1="387.752" y1="141.5" x2="390.561" y2="151.702" gradientUnits="userSpaceOnUse">
<stop stop-color="#414352"/>
<stop offset="1" stop-color="#868ABE"/>
</linearGradient>
<linearGradient id="paint26_linear_219_182" x1="339.751" y1="47" x2="437.251" y2="122.002" gradientUnits="userSpaceOnUse">
<stop stop-color="#63C3EC"/>
<stop offset="1" stop-color="#31C6FB"/>
</linearGradient>
<linearGradient id="paint27_linear_219_182" x1="321" y1="168.5" x2="321.672" y2="179.823" gradientUnits="userSpaceOnUse">
<stop stop-color="#626475"/>
<stop offset="1" stop-color="#868ABE"/>
</linearGradient>
<linearGradient id="paint28_linear_219_182" x1="321" y1="159.5" x2="322.506" y2="176.41" gradientUnits="userSpaceOnUse">
<stop stop-color="#3E606A"/>
<stop offset="1" stop-color="#086CB5"/>
</linearGradient>
<linearGradient id="paint29_linear_219_182" x1="543.875" y1="7.25843" x2="611.358" y2="45.5769" gradientUnits="userSpaceOnUse">
<stop stop-color="#484A58"/>
<stop offset="1" stop-color="#868ABE"/>
</linearGradient>
<linearGradient id="paint30_linear_219_182" x1="543.876" y1="7.25832" x2="611.358" y2="45.5768" gradientUnits="userSpaceOnUse">
<stop stop-color="#2F3144"/>
<stop offset="1" stop-color="#868ABE"/>
</linearGradient>
<linearGradient id="paint31_linear_219_182" x1="511.01" y1="14" x2="588.68" y2="37.1185" gradientUnits="userSpaceOnUse">
<stop stop-color="#A1A6D2"/>
<stop offset="1" stop-color="#868ABE"/>
</linearGradient>
<linearGradient id="paint32_linear_219_182" x1="511.01" y1="14" x2="588.68" y2="37.1185" gradientUnits="userSpaceOnUse">
<stop stop-color="#626475"/>
<stop offset="1" stop-color="#868ABE"/>
</linearGradient>
<linearGradient id="paint33_linear_219_182" x1="511.01" y1="27.4832" x2="588.68" y2="50.6017" gradientUnits="userSpaceOnUse">
<stop stop-color="#3E404F"/>
<stop offset="1" stop-color="#53567B"/>
</linearGradient>
<linearGradient id="paint34_linear_219_182" x1="511.01" y1="42.6517" x2="588.68" y2="65.7703" gradientUnits="userSpaceOnUse">
<stop stop-color="#3E404F"/>
<stop offset="1" stop-color="#53567B"/>
</linearGradient>
<linearGradient id="paint35_linear_219_182" x1="511.01" y1="57.8202" x2="588.68" y2="80.9387" gradientUnits="userSpaceOnUse">
<stop stop-color="#3E404F"/>
<stop offset="1" stop-color="#53567B"/>
</linearGradient>
<linearGradient id="paint36_linear_219_182" x1="511.01" y1="72.9888" x2="588.68" y2="96.1073" gradientUnits="userSpaceOnUse">
<stop stop-color="#3E404F"/>
<stop offset="1" stop-color="#53567B"/>
</linearGradient>
<linearGradient id="paint37_linear_219_182" x1="541.347" y1="111.753" x2="541.347" y2="128.607" gradientUnits="userSpaceOnUse">
<stop stop-opacity="0.46"/>
<stop offset="1" stop-opacity="0.57"/>
</linearGradient>
</defs>
</svg>
